<svg width="26" height="26" viewBox="0 0 26 26" fill="none" xmlns="http://www.w3.org/2000/svg">
<g id="class">
<path id="Vector" fill-rule="evenodd" clip-rule="evenodd" d="M3.25 3.25H20.0417V5.95833H18.9583V4.33333H4.33333V16.7917H15.918V17.875H3.25V3.25ZM19.5 10.2917C19.931 10.2917 20.3443 10.1205 20.649 9.81572C20.9538 9.51097 21.125 9.09764 21.125 8.66667C21.125 8.23569 20.9538 7.82236 20.649 7.51762C20.3443 7.21287 19.931 7.04167 19.5 7.04167C19.069 7.04167 18.6557 7.21287 18.351 7.51762C18.0462 7.82236 17.875 8.23569 17.875 8.66667C17.875 9.09764 18.0462 9.51097 18.351 9.81572C18.6557 10.1205 19.069 10.2917 19.5 10.2917ZM20.6001 11.3804C21.3037 11.3804 21.8606 11.6968 22.2251 12.1853C22.5658 12.643 22.7099 13.2091 22.7424 13.7318C22.7743 14.268 22.7012 14.8052 22.5274 15.3135C22.3649 15.7847 22.0903 16.2722 21.6667 16.6064V21.9375C21.6671 22.1416 21.5906 22.3384 21.4525 22.4888C21.3144 22.6391 21.1247 22.7319 20.9213 22.7488C20.7178 22.7657 20.5155 22.7053 20.3545 22.5798C20.1935 22.4542 20.0857 22.2727 20.0525 22.0713L19.3538 17.875H19.1923L18.4026 22.087C18.3651 22.2858 18.2548 22.4634 18.0932 22.5852C17.9317 22.707 17.7305 22.7641 17.5291 22.7454C17.3277 22.7267 17.1404 22.6335 17.0041 22.4841C16.8677 22.3347 16.7919 22.1398 16.7917 21.9375V14.2095C16.6833 14.3745 16.5765 14.5405 16.471 14.7073L16.4288 14.774L16.4179 14.7913L16.4152 14.7962C16.3422 14.9134 16.2405 15.0101 16.1198 15.0771C15.999 15.1441 15.8632 15.1792 15.7251 15.1791H13.0168C12.8013 15.1791 12.5946 15.0935 12.4423 14.9411C12.2899 14.7888 12.2043 14.5821 12.2043 14.3666C12.2043 14.1511 12.2899 13.9445 12.4423 13.7921C12.5946 13.6397 12.8013 13.5541 13.0168 13.5541H15.2793C15.411 13.3505 15.5843 13.0861 15.7663 12.8207C15.9559 12.5439 16.165 12.2509 16.3513 12.0212C16.4418 11.9091 16.543 11.7921 16.6449 11.6962C16.6947 11.6491 16.764 11.5879 16.8485 11.5337C16.9977 11.4358 17.1718 11.3828 17.3501 11.381L20.6001 11.3804Z" fill="#FAAF40"/>
</g>
</svg>
