<svg width="26" height="26" viewBox="0 0 26 26" fill="none" xmlns="http://www.w3.org/2000/svg">
<g id="support">
<path id="Vector" d="M13 2.16675C7.02646 2.16675 2.16663 7.02658 2.16663 13.0001V17.4883C2.16663 18.5977 3.13838 19.5001 4.33329 19.5001H5.41663C5.70394 19.5001 5.97949 19.3859 6.18266 19.1828C6.38582 18.9796 6.49996 18.7041 6.49996 18.4167V12.8452C6.49996 12.5578 6.38582 12.2823 6.18266 12.0791C5.97949 11.876 5.70394 11.7618 5.41663 11.7618H4.43296C5.03529 7.56933 8.64279 4.33341 13 4.33341C17.3571 4.33341 20.9646 7.56933 21.567 11.7618H20.5833C20.296 11.7618 20.0204 11.876 19.8173 12.0791C19.6141 12.2823 19.5 12.5578 19.5 12.8452V19.5001C19.5 20.695 18.5282 21.6667 17.3333 21.6667H15.1666V20.5834H10.8333V23.8334H17.3333C19.7231 23.8334 21.6666 21.8899 21.6666 19.5001C22.8615 19.5001 23.8333 18.5977 23.8333 17.4883V13.0001C23.8333 7.02658 18.9735 2.16675 13 2.16675Z" fill="#FAAF40"/>
</g>
</svg>
